<?xml version="1.0" encoding="utf-8"?>
<!-- Generator: Adobe Illustrator 23.0.1, SVG Export Plug-In . SVG Version: 6.00 Build 0)  -->
<svg version="1.1" id="Layer_1" xmlns="http://www.w3.org/2000/svg" xmlns:xlink="http://www.w3.org/1999/xlink" x="0px" y="0px"
	 viewBox="0 0 1366 290" style="enable-background:new 0 0 1366 290;" xml:space="preserve">
<style type="text/css">
	.st0{fill:#662C90;}
</style>
<path class="st0" d="M203.4,94.5l-1,195.4h896.4c0,0,92.3,3.6,137.8-48.7c45.5-52.2,48.3-116.1,0-173
	c-48.3-56.8-149.2-46.9-149.2-46.9l-885-0.7V0L94.2,39.6l108.7,37.3V53.5h885.4c0,0,87.4-5.3,123.6,40.5s21.3,97,5.3,116.1
	c-16,19.2-41.6,47.9-120.4,46.9s-862,0-862,0l0.1-79.4L203.4,94.5z"/>
<g>
	<path class="st0" d="M202.8,94.1h86.1v26.1h-54.1v32.2h50.6v25.9h-50.6V235h-32L202.8,94.1L202.8,94.1z"/>
	<path class="st0" d="M301.9,100.2h30.6v109.2h47.6V235h-78.2L301.9,100.2L301.9,100.2z"/>
	<path class="st0" d="M424.7,200.4l-9.6,34.6h-31.6l41.2-134.8h40L506.5,235h-32.8l-10.4-34.6H424.7z M458.9,177.6l-8.4-28.6
		c-2.4-8-4.8-18-6.8-26h-0.4c-2,8-4,18.2-6.2,26l-8,28.6H458.9z"/>
	<path class="st0" d="M514.7,203.6c8.2,4.2,20.8,8.4,33.8,8.4c14,0,21.4-5.8,21.4-14.6c0-8.4-6.4-13.2-22.6-19
		c-22.4-7.8-37-20.2-37-39.8c0-23,19.2-40.6,51-40.6c15.2,0,26.4,3.2,34.4,6.8l-6.8,24.6c-5.4-2.6-15-6.4-28.2-6.4s-19.6,6-19.6,13
		c0,8.6,7.6,12.4,25,19c23.8,8.8,35,21.2,35,40.2c0,22.6-17.4,41.8-54.4,41.8c-15.4,0-30.6-4-38.2-8.2L514.7,203.6z"/>
	<path class="st0" d="M641.5,100.2V152h50.2v-51.8h30.4V235h-30.4v-56.4h-50.2V235h-30.6V100.2H641.5z"/>
	<path class="st0" d="M737.9,102c8-1.6,24.2-2.8,39.4-2.8c18.6,0,30,1.8,39.8,7.6c9.4,5,16.2,14.2,16.2,26.4c0,12-7,23.2-22.2,28.8
		v0.4c15.4,4.2,26.8,15.8,26.8,33.2c0,12.2-5.6,21.8-14,28.6c-9.8,7.8-26.2,12.2-53,12.2c-15,0-26.2-1-33-2V102z M768.1,153.6h10
		c16,0,24.6-6.6,24.6-16.6c0-10.2-7.8-15.6-21.6-15.6c-6.6,0-10.4,0.4-13,0.8V153.6z M768.1,213.4c3,0.4,6.6,0.4,11.8,0.4
		c13.8,0,26-5.2,26-19.4c0-13.6-12.2-19-27.4-19h-10.4L768.1,213.4L768.1,213.4z"/>
	<path class="st0" d="M879.3,200.4l-9.6,34.6h-31.6l41.2-134.8h40L961.1,235h-32.8l-10.4-34.6H879.3z M913.5,177.6l-8.4-28.6
		c-2.4-8-4.8-18-6.8-26h-0.4c-2,8-4,18.2-6.2,26l-8,28.6H913.5z"/>
	<path class="st0" d="M1067.3,231.2c-5.6,2.8-18.2,5.8-34.6,5.8c-46.6,0-70.6-29-70.6-67.4c0-46,32.8-71.6,73.6-71.6
		c15.8,0,27.8,3.2,33.2,6l-6.2,24.2c-6.2-2.6-14.8-5-25.6-5c-24.2,0-43,14.6-43,44.6c0,27,16,44,43.2,44c9.2,0,19.4-2,25.4-4.4
		L1067.3,231.2z"/>
	<path class="st0" d="M1076.5,100.2h30.2v59.6h0.6c3-5.2,6.2-10,9.2-14.8l30.6-44.8h37.4l-44.6,57.4l47,77.4h-35.6l-33-58.2
		l-11.6,14.2v44h-30.2V100.2z"/>
</g>
</svg>
